<svg width="368" height="420" viewBox="0 0 368 420" fill="none" xmlns="http://www.w3.org/2000/svg">
<path d="M26.3411 289.25L184 2.07793L341.659 289.25H26.3411Z" stroke="#D2D2D2" stroke-width="2"/>
<circle cx="184" cy="181" r="149" stroke="#E6E6E6" stroke-width="2"/>
<path d="M184 2L192 179L26.5 288.5" stroke="#D2D2D2" stroke-width="2"/>
<path d="M27.0003 290C66.2313 264.542 156.342 229.381 202.935 292.4C249.528 355.418 313.059 316.391 339 289" stroke="#DCDCDC" stroke-width="2"/>
<path d="M27 289C40.4673 243.355 56 165 93 179.538C144.317 199.702 178.5 259 192 179.538" stroke="#D2D2D2" stroke-width="2"/>
<path d="M344 290L192 181" stroke="#D2D2D2" stroke-width="2"/>
<path d="M184.5 2C219.5 17.6667 263 56 254 113C245.32 167.971 205.167 178.333 192.5 180" stroke="#D2D2D2" stroke-width="2"/>
<path d="M184 2.5C146.376 18.2547 107.614 56.3034 117.289 113.624C126.619 168.903 178.384 177.824 192 179.5" stroke="#D2D2D2" stroke-width="2"/>
<path d="M192.5 180C211.333 150 248 109.5 278 153.5C317.326 211.178 214.5 233.5 259 288.5C293.579 331.238 330.667 297.667 339 288.5" stroke="#D2D2D2" stroke-width="2"/>
</svg>
